<svg width="181" height="181" viewBox="0 0 181 181" fill="none" xmlns="http://www.w3.org/2000/svg">
  <circle cx="90.5" cy="90.5" r="90.5" fill="#191C1F" />
  <g filter="url(#filter0_d_36_44)">
    <path
      d="M22.1605 109V72.6364H36.5071C39.2533 72.6364 41.5971 73.1276 43.5384 74.1101C45.4915 75.0807 46.977 76.4598 47.995 78.2472C49.0249 80.0227 49.5398 82.112 49.5398 84.5149C49.5398 86.9297 49.0189 89.0071 47.9773 90.7472C46.9356 92.4754 45.4264 93.8011 43.4496 94.7244C41.4846 95.6477 39.1054 96.1094 36.3118 96.1094H26.706V89.9304H35.0689C36.5367 89.9304 37.7559 89.7292 38.7266 89.3267C39.6972 88.9242 40.4193 88.3205 40.8928 87.5156C41.3781 86.7107 41.6207 85.7105 41.6207 84.5149C41.6207 83.3075 41.3781 82.2895 40.8928 81.4609C40.4193 80.6323 39.6913 80.005 38.7088 79.5788C37.7382 79.1409 36.513 78.9219 35.0334 78.9219H29.8487V109H22.1605ZM41.7983 92.4517L50.8359 109H42.3487L33.5064 92.4517H41.7983ZM87.0575 85.3672H79.2805C79.1385 84.361 78.8485 83.4673 78.4105 82.6861C77.9725 81.893 77.4103 81.2183 76.7237 80.6619C76.0372 80.1056 75.2441 79.6794 74.3445 79.3835C73.4567 79.0876 72.492 78.9396 71.4503 78.9396C69.5682 78.9396 67.9287 79.4072 66.532 80.3423C65.1352 81.2656 64.0521 82.6151 63.2827 84.3906C62.5133 86.1544 62.1286 88.2969 62.1286 90.8182C62.1286 93.4105 62.5133 95.5885 63.2827 97.3523C64.0639 99.116 65.1529 100.448 66.5497 101.347C67.9465 102.247 69.5623 102.697 71.397 102.697C72.4268 102.697 73.3797 102.561 74.2557 102.288C75.1435 102.016 75.9306 101.62 76.6172 101.099C77.3037 100.566 77.8719 99.9209 78.3217 99.1634C78.7834 98.4058 79.103 97.5417 79.2805 96.571L87.0575 96.6065C86.8563 98.2756 86.3532 99.8854 85.5483 101.436C84.7552 102.975 83.6839 104.354 82.3345 105.573C80.9969 106.781 79.3989 107.739 77.5405 108.45C75.6939 109.148 73.6046 109.497 71.2727 109.497C68.0294 109.497 65.1293 108.763 62.5724 107.295C60.0275 105.828 58.0152 103.703 56.5355 100.921C55.0677 98.1394 54.3338 94.7718 54.3338 90.8182C54.3338 86.8527 55.0795 83.4792 56.571 80.6974C58.0625 77.9157 60.0866 75.7969 62.6435 74.3409C65.2003 72.8731 68.0767 72.1392 71.2727 72.1392C73.3797 72.1392 75.3329 72.4351 77.1321 73.027C78.9432 73.6188 80.5471 74.483 81.9439 75.6193C83.3407 76.7438 84.477 78.1229 85.353 79.7564C86.2408 81.3899 86.8089 83.2602 87.0575 85.3672ZM98.1548 109H89.9162L102.469 72.6364H112.377L124.913 109H116.674L107.565 80.946H107.281L98.1548 109ZM97.6399 94.7067H117.1V100.708H97.6399V94.7067Z"
      fill="white" />
    <path
      d="M140.014 72.6364L145.27 85.0298H145.554L155 72.6364H163.931L149.85 90.8182L158.142 109H149.46L144.062 96.5888H143.778L134.261 109H125.294L139.73 90.8182L131.544 72.6364H140.014Z"
      fill="#F59E0B" />
  </g>
  <defs>
    <filter id="filter0_d_36_44" x="18.1605" y="72.1392" width="149.77" height="45.3579" filterUnits="userSpaceOnUse"
      color-interpolation-filters="sRGB">
      <feFlood flood-opacity="0" result="BackgroundImageFix" />
      <feColorMatrix in="SourceAlpha" type="matrix" values="0 0 0 0 0 0 0 0 0 0 0 0 0 0 0 0 0 0 127 0"
        result="hardAlpha" />
      <feOffset dy="4" />
      <feGaussianBlur stdDeviation="2" />
      <feComposite in2="hardAlpha" operator="out" />
      <feColorMatrix type="matrix" values="0 0 0 0 0 0 0 0 0 0 0 0 0 0 0 0 0 0 0.25 0" />
      <feBlend mode="normal" in2="BackgroundImageFix" result="effect1_dropShadow_36_44" />
      <feBlend mode="normal" in="SourceGraphic" in2="effect1_dropShadow_36_44" result="shape" />
    </filter>
  </defs>
</svg>